<svg width="60" height="40" viewBox="0 0 60 40" fill="none" xmlns="http://www.w3.org/2000/svg">
<rect x="0.5" y="0.5" width="59" height="39" rx="2.5" fill="white" stroke="#D5DFFF"/>
<path fill-rule="evenodd" clip-rule="evenodd" d="M11.7647 23.7515C11.7647 23.0297 11.388 23.0771 11.0277 23.0695V22.8609C11.3401 22.8761 11.6605 22.8761 11.9737 22.8761C12.3103 22.8761 12.7672 22.8609 13.3608 22.8609C15.4368 22.8609 16.5676 24.2488 16.5676 25.6701C16.5676 26.4655 16.1026 28.4636 13.2644 28.4636C12.8558 28.4636 12.4785 28.4477 12.1019 28.4477C11.7414 28.4477 11.388 28.4551 11.0277 28.4636V28.2548C11.5082 28.2062 11.7414 28.1905 11.7647 27.6447V23.7515ZM12.5504 27.516C12.5504 28.1343 12.9918 28.2062 13.3844 28.2062C15.1166 28.2062 15.685 26.8981 15.685 25.7023C15.685 24.2014 14.7231 23.118 13.1761 23.118C12.8466 23.118 12.695 23.1415 12.5504 23.1501V27.516Z" fill="#1A1919"/>
<path fill-rule="evenodd" clip-rule="evenodd" d="M16.8486 28.2548H17.0006C17.225 28.2548 17.3855 28.2548 17.3855 27.9893V25.8143C17.3855 25.4616 17.2654 25.4129 16.9684 25.2528V25.1247C17.3452 25.0113 17.7945 24.8599 17.8262 24.8357C17.8827 24.8035 17.9301 24.7949 17.9708 24.7949C18.0101 24.7949 18.0267 24.8432 18.0267 24.908V27.9893C18.0267 28.2548 18.2033 28.2548 18.4281 28.2548H18.5638V28.4636C18.2912 28.4636 18.0101 28.4477 17.7225 28.4477C17.4338 28.4477 17.145 28.4552 16.8486 28.4636V28.2548ZM17.7065 23.5592C17.4976 23.5592 17.3137 23.3666 17.3137 23.158C17.3137 22.957 17.5064 22.772 17.7065 22.772C17.9146 22.772 18.0995 22.9411 18.0995 23.158C18.0995 23.3751 17.9227 23.5592 17.7065 23.5592Z" fill="#1A1919"/>
<path fill-rule="evenodd" clip-rule="evenodd" d="M19.3259 25.8625C19.3259 25.5661 19.2374 25.4859 18.8613 25.3332V25.1807C19.2054 25.0685 19.5338 24.9637 19.9191 24.7949C19.9434 24.7949 19.9666 24.8109 19.9666 24.875V25.397C20.4244 25.0685 20.8172 24.7949 21.3552 24.7949C22.0357 24.7949 22.2761 25.2927 22.2761 25.9187V27.9893C22.2761 28.2548 22.453 28.2548 22.6772 28.2548H22.8219V28.4636C22.5403 28.4636 22.2601 28.4477 21.9718 28.4477C21.683 28.4477 21.3942 28.4551 21.1055 28.4636V28.2548H21.2502C21.4748 28.2548 21.6344 28.2548 21.6344 27.9893V25.9113C21.6344 25.4532 21.3552 25.2287 20.8976 25.2287C20.6409 25.2287 20.232 25.437 19.9666 25.6144V27.9893C19.9666 28.2548 20.1438 28.2548 20.3684 28.2548H20.5124V28.4636C20.232 28.4636 19.9513 28.4477 19.6621 28.4477C19.3742 28.4477 19.0852 28.4551 18.7969 28.4636V28.2548H18.9415C19.1658 28.2548 19.3259 28.2548 19.3259 27.9893V25.8625Z" fill="#1A1919"/>
<path fill-rule="evenodd" clip-rule="evenodd" d="M23.4312 26.2484C23.4148 26.3206 23.4148 26.4408 23.4312 26.7139C23.4784 27.4763 23.9685 28.102 24.6092 28.102C25.0508 28.102 25.3957 27.8611 25.6918 27.5647L25.8038 27.6771C25.4349 28.1667 24.9781 28.5843 24.3212 28.5843C23.0461 28.5843 22.7897 27.3475 22.7897 26.8341C22.7897 25.2607 23.8476 24.7949 24.4083 24.7949C25.0584 24.7949 25.7564 25.2042 25.7638 26.0553C25.7638 26.1041 25.7638 26.1517 25.7564 26.2L25.6839 26.2484H23.4312ZM24.8509 25.9913C25.0508 25.9913 25.0743 25.8868 25.0743 25.7901C25.0743 25.3814 24.8259 25.0523 24.3768 25.0523C23.8882 25.0523 23.5513 25.4129 23.4552 25.9913H24.8509Z" fill="#1A1919"/>
<path fill-rule="evenodd" clip-rule="evenodd" d="M25.9482 28.2548H26.1649C26.3885 28.2548 26.549 28.2548 26.549 27.9893V25.7342C26.549 25.4859 26.2526 25.437 26.1322 25.3728V25.2528C26.7174 25.0038 27.0383 24.7949 27.1116 24.7949C27.1585 24.7949 27.1826 24.819 27.1826 24.8997V25.6221H27.1994C27.3992 25.3092 27.7366 24.7949 28.2254 24.7949C28.4257 24.7949 28.6819 24.9313 28.6819 25.2204C28.6819 25.437 28.5303 25.6306 28.3059 25.6306C28.0566 25.6306 28.0566 25.437 27.7757 25.437C27.6396 25.437 27.1907 25.6221 27.1907 26.1041V27.9893C27.1907 28.2548 27.3508 28.2548 27.5754 28.2548H28.0239V28.4636C27.583 28.4551 27.2475 28.4477 26.9024 28.4477C26.5736 28.4477 26.2367 28.4551 25.9482 28.4636V28.2548Z" fill="#1A1919"/>
<path fill-rule="evenodd" clip-rule="evenodd" d="M29.0347 27.3475C29.1392 27.8772 29.4592 28.3274 30.0456 28.3274C30.5179 28.3274 30.6941 28.0381 30.6941 27.7573C30.6941 26.8097 28.9469 27.115 28.9469 25.8229C28.9469 25.3729 29.3078 24.795 30.1898 24.795C30.4459 24.795 30.7905 24.8678 31.1029 25.0285L31.1592 25.8465H30.975C30.8949 25.3411 30.6146 25.0523 30.1009 25.0523C29.7803 25.0523 29.4759 25.2366 29.4759 25.5818C29.4759 26.5215 31.3354 26.232 31.3354 27.4923C31.3354 28.0217 30.911 28.5843 29.9566 28.5843C29.6363 28.5843 29.2588 28.4717 28.9791 28.3112L28.8904 27.388L29.0347 27.3475Z" fill="#1A1919"/>
<path fill-rule="evenodd" clip-rule="evenodd" d="M38.5746 24.3133H38.3746C38.222 23.375 37.5565 22.9973 36.6592 22.9973C35.7362 22.9973 34.3978 23.6149 34.3978 25.5413C34.3978 27.1633 35.5527 28.3273 36.787 28.3273C37.58 28.3273 38.2388 27.7813 38.3989 26.938L38.5833 26.9859L38.3989 28.1582C38.0622 28.3672 37.1559 28.5843 36.6262 28.5843C34.751 28.5843 33.5646 27.3719 33.5646 25.5661C33.5646 23.9201 35.0317 22.7399 36.6031 22.7399C37.2522 22.7399 37.8774 22.9492 38.4948 23.1661L38.5746 24.3133Z" fill="#1A1919"/>
<path fill-rule="evenodd" clip-rule="evenodd" d="M38.864 28.2547H39.0158C39.241 28.2547 39.401 28.2547 39.401 27.9892V23.5195C39.401 22.9973 39.281 22.9814 38.976 22.8929V22.7643C39.2965 22.6602 39.6335 22.516 39.8023 22.419C39.8893 22.3715 39.954 22.3305 39.9776 22.3305C40.0267 22.3305 40.0425 22.3793 40.0425 22.4438V27.9892C40.0425 28.2547 40.2191 28.2547 40.4433 28.2547H40.579V28.4635C40.3072 28.4635 40.0267 28.4477 39.7379 28.4477C39.4494 28.4477 39.1611 28.4551 38.864 28.4635V28.2547Z" fill="#1A1919"/>
<path fill-rule="evenodd" clip-rule="evenodd" d="M44.0117 28.0216C44.0117 28.1666 44.0994 28.1742 44.2353 28.1742C44.3321 28.1742 44.4518 28.1666 44.5568 28.1666V28.3356C44.2119 28.3673 43.5542 28.5359 43.4016 28.5842L43.3616 28.5598V27.9095C42.8811 28.3027 42.5119 28.5842 41.9418 28.5842C41.509 28.5842 41.0604 28.3027 41.0604 27.6293V25.5738C41.0604 25.3649 41.0285 25.1642 40.5802 25.1246V24.9717C40.869 24.9638 41.509 24.9158 41.6136 24.9158C41.7026 24.9158 41.7026 24.9717 41.7026 25.1486V27.2193C41.7026 27.4603 41.7026 28.1499 42.3999 28.1499C42.672 28.1499 43.0328 27.9418 43.3694 27.6612V25.5014C43.3694 25.341 42.9848 25.2528 42.6966 25.1729V25.0286C43.4174 24.9796 43.8669 24.9158 43.947 24.9158C44.0117 24.9158 44.0117 24.9717 44.0117 25.0603V28.0216Z" fill="#1A1919"/>
<path fill-rule="evenodd" clip-rule="evenodd" d="M45.6068 25.3728C45.9273 25.1005 46.3604 24.7948 46.8013 24.7948C47.7315 24.7948 48.2928 25.6064 48.2928 26.4811C48.2928 27.5323 47.5228 28.5842 46.3758 28.5842C45.7832 28.5842 45.4704 28.391 45.2615 28.3027L45.0218 28.4874L44.8537 28.3994C44.9253 27.9259 44.9658 27.4604 44.9658 26.9705V23.5195C44.9658 22.9973 44.8451 22.9814 44.5404 22.8929V22.7643C44.8614 22.6602 45.1978 22.516 45.366 22.419C45.4546 22.3715 45.5185 22.3305 45.5429 22.3305C45.5906 22.3305 45.6068 22.3794 45.6068 22.4438V25.3728ZM45.6067 27.5563C45.6067 27.8611 45.8955 28.3753 46.4325 28.3753C47.2902 28.3753 47.6508 27.5323 47.6508 26.8176C47.6508 25.951 46.9941 25.2287 46.3689 25.2287C46.071 25.2287 45.823 25.4216 45.6067 25.6064V27.5563Z" fill="#1A1919"/>
<path fill-rule="evenodd" clip-rule="evenodd" d="M15.3465 32.4011L15.3553 32.3925V30.7551C15.3553 30.3967 15.1062 30.3443 14.9755 30.3443H14.8794V30.2132C15.0848 30.2132 15.2854 30.2306 15.4902 30.2306C15.669 30.2306 15.8487 30.2132 16.0268 30.2132V30.3443H15.9619C15.7782 30.3443 15.5731 30.3792 15.5731 30.899V32.8862C15.5731 33.0392 15.5774 33.192 15.5988 33.3276H15.433L13.1868 30.8201V32.62C13.1868 33.0002 13.2606 33.1307 13.5965 33.1307H13.6708V33.2619C13.4832 33.2619 13.2958 33.2449 13.1082 33.2449C12.9124 33.2449 12.7114 33.2619 12.5149 33.2619V33.1307H12.5762C12.877 33.1307 12.9687 32.9253 12.9687 32.577V30.7368C12.9687 30.4924 12.7674 30.3443 12.5719 30.3443H12.5149V30.2132C12.6804 30.2132 12.8508 30.2306 13.0162 30.2306C13.1475 30.2306 13.274 30.2132 13.4048 30.2132L15.3465 32.4011Z" fill="#1A1919"/>
<path fill-rule="evenodd" clip-rule="evenodd" d="M15.5987 33.3459L15.4191 33.3398L13.2052 30.8693V32.62C13.2105 32.9997 13.2681 33.1077 13.5966 33.1118H13.69V33.2806H13.6707C13.482 33.2806 13.2942 33.2631 13.1081 33.2631C12.9128 33.2631 12.7123 33.2806 12.5146 33.2806H12.4955V33.1118H12.5761C12.8644 33.1101 12.9468 32.9247 12.9499 32.5768V30.7374C12.9491 30.5048 12.7585 30.3633 12.5719 30.3633H12.4955V30.1942H12.5146C12.6814 30.1942 12.8522 30.2112 13.0158 30.2112C13.1459 30.2112 13.2719 30.1942 13.419 30.2009L15.3362 32.3616V30.7551C15.334 30.4082 15.1025 30.3661 14.9755 30.3633H14.8601V30.1942H14.8794C15.0855 30.1942 15.2863 30.2112 15.4901 30.2112C15.6676 30.2112 15.8464 30.1942 16.0267 30.1942H16.0459V30.3633H15.9618C15.7817 30.3679 15.5969 30.3838 15.5916 30.8989V32.8861C15.5916 33.0391 15.5964 33.1915 15.6174 33.3241L15.6214 33.3459H15.5987ZM15.4332 33.3079H15.5775C15.558 33.1764 15.5546 33.0314 15.5546 32.8861V30.8989C15.5546 30.3747 15.774 30.3252 15.9619 30.3249H16.0078V30.232C15.8359 30.2333 15.6637 30.2492 15.4902 30.2492C15.2904 30.2492 15.0962 30.2333 14.899 30.232L14.8985 30.3249H14.9756C15.1097 30.3252 15.3741 30.3849 15.3741 30.7551L15.3683 32.4062L15.3597 32.4146L15.3449 32.4287L13.4048 30.232C13.2751 30.232 13.149 30.2492 13.0159 30.2492C12.856 30.2492 12.6922 30.2333 12.5341 30.232L12.5332 30.3249H12.572C12.7766 30.3252 12.9872 30.4816 12.9872 30.7374V32.5768C12.9872 32.9263 12.8899 33.1495 12.5762 33.1506L12.5341 33.1495V33.2432C12.723 33.2417 12.9176 33.2257 13.1082 33.2257C13.2902 33.2257 13.4718 33.2417 13.6518 33.2432V33.1506H13.5966C13.2533 33.1495 13.1683 32.9997 13.168 32.6199V30.7711L15.4332 33.3079ZM15.3465 32.4011L15.3602 32.3885L15.3465 32.4011ZM15.3361 32.3925V32.3908L15.3326 32.388L15.3361 32.3925Z" fill="#1A1919"/>
<path fill-rule="evenodd" clip-rule="evenodd" d="M16.6803 30.4316C16.3527 30.4316 16.34 30.5106 16.2746 30.8291H16.1437C16.1609 30.7067 16.1825 30.5845 16.196 30.4579C16.2135 30.3351 16.2223 30.2132 16.2223 30.0869H16.3268C16.362 30.218 16.471 30.2132 16.5894 30.2132H18.8394C18.9578 30.2132 19.0666 30.2089 19.0755 30.0778L19.1797 30.0957C19.1629 30.2132 19.145 30.3313 19.1323 30.4495C19.1237 30.5673 19.1237 30.6849 19.1237 30.8028L18.9926 30.8514C18.9837 30.69 18.9621 30.4316 18.6698 30.4316H17.9543V32.7552C17.9543 33.0922 18.1072 33.1307 18.3163 33.1307H18.3995V33.262C18.2292 33.262 17.9238 33.2451 17.6886 33.2451C17.4266 33.2451 17.1209 33.262 16.9507 33.262V33.1307H17.0339C17.2743 33.1307 17.3958 33.1092 17.3958 32.7643V30.4316H16.6803Z" fill="#1A1919"/>
<path fill-rule="evenodd" clip-rule="evenodd" d="M18.3999 33.2806C18.228 33.2806 17.9228 33.2633 17.6887 33.2633C17.427 33.2633 17.1218 33.2806 16.9507 33.2806H16.9321V33.1119H17.0339C17.2744 33.1062 17.371 33.1031 17.3764 32.7643V30.4503H16.6804V30.4121H17.4142V32.7643C17.4142 33.115 17.2731 33.1504 17.0339 33.1507H16.9694V33.243C17.1414 33.2418 17.4354 33.2258 17.6887 33.2258C17.9157 33.2258 18.2072 33.2418 18.3801 33.243V33.1507H18.3163C18.1053 33.1504 17.9355 33.0985 17.9355 32.7552V30.4121H18.6699C18.9625 30.4133 19.0013 30.6622 19.0104 30.8248L19.1048 30.7899C19.1048 30.6758 19.1053 30.5616 19.1131 30.4468C19.126 30.3339 19.1418 30.223 19.1582 30.111L19.0919 30.1C19.0716 30.2271 18.9486 30.2339 18.8393 30.2322H16.5666C16.4639 30.2324 16.3521 30.2274 16.3128 30.1056H16.2408C16.2402 30.2263 16.2319 30.3435 16.2154 30.4599C16.2024 30.5799 16.1824 30.6951 16.1665 30.8109H16.2597C16.317 30.5062 16.3543 30.4078 16.6804 30.4121V30.4503C16.3573 30.4567 16.3644 30.5108 16.2932 30.8335L16.29 30.8484H16.1219L16.1243 30.8257C16.1421 30.7039 16.1642 30.5812 16.1769 30.4544C16.1951 30.3332 16.2034 30.2121 16.2034 30.0869V30.0676H16.3419L16.3452 30.0813C16.3746 30.1914 16.4553 30.1922 16.5666 30.1942H18.8393C18.9608 30.1922 19.0493 30.1906 19.0568 30.0763L19.0583 30.0557L19.0781 30.0596L19.2014 30.0791L19.1983 30.0985C19.1809 30.2157 19.1639 30.3332 19.1507 30.4503C19.1426 30.5673 19.1426 30.6847 19.1426 30.8028V30.816L19.1299 30.8211L18.9755 30.8777L18.9745 30.8524C18.9625 30.688 18.9456 30.4503 18.6699 30.4503H17.9735V32.7552C17.9778 33.0846 18.1083 33.1077 18.3163 33.1119H18.4184V33.2806H18.3999Z" fill="#1A1919"/>
<path fill-rule="evenodd" clip-rule="evenodd" d="M19.3192 33.1307H19.3806C19.5372 33.1307 19.7035 33.1092 19.7035 32.8819V30.5938C19.7035 30.3661 19.5372 30.3445 19.3806 30.3445H19.3192V30.2132C19.5844 30.2132 20.0392 30.2306 20.4049 30.2306C20.772 30.2306 21.2251 30.2132 21.5217 30.2132C21.5141 30.401 21.5182 30.69 21.5311 30.8818L21.3997 30.9165C21.3787 30.6325 21.3263 30.406 20.8681 30.406H20.2624V31.5495H20.7806C21.0423 31.5495 21.0993 31.4015 21.1252 31.1655H21.256C21.2472 31.3361 21.2426 31.5064 21.2426 31.6765C21.2426 31.8428 21.2472 32.0086 21.256 32.1743L21.1252 32.2004C21.0993 31.9387 21.0862 31.7684 20.7849 31.7684H20.2624V32.7855C20.2624 33.0698 20.5144 33.0698 20.7938 33.0698C21.3174 33.0698 21.5484 33.0346 21.6794 32.5373L21.8011 32.5674C21.7444 32.7994 21.6924 33.0302 21.6533 33.2619C21.3737 33.2619 20.8721 33.2451 20.4802 33.2451C20.0867 33.2451 19.5681 33.2619 19.3192 33.2619V33.1307Z" fill="#1A1919"/>
<path fill-rule="evenodd" clip-rule="evenodd" d="M21.6534 33.2806C21.3735 33.2806 20.8715 33.2624 20.4802 33.2624C20.0872 33.2624 19.5687 33.2806 19.3195 33.2806H19.3011V33.1118H19.3809C19.5388 33.1092 19.6824 33.0953 19.6844 32.8818V30.5937C19.6824 30.3803 19.5388 30.3661 19.3809 30.3633H19.3011V30.1942H19.3195C19.586 30.1942 20.0398 30.2112 20.4054 30.2112C20.7721 30.2112 21.2251 30.1942 21.5221 30.1942H21.5414L21.5408 30.2143C21.538 30.2796 21.5362 30.3573 21.5362 30.4395C21.5362 30.5904 21.5408 30.7559 21.5494 30.8802L21.5502 30.8958L21.5355 30.9003L21.3821 30.9404L21.3814 30.9179C21.3557 30.6346 21.3177 30.4284 20.8685 30.4241H20.2805L20.2802 31.5303H20.7809C21.0323 31.5277 21.0773 31.399 21.107 31.1634L21.108 31.1459H21.2757L21.2754 31.1659C21.267 31.3365 21.2619 31.5063 21.2619 31.6765C21.2619 31.8416 21.267 32.0074 21.2754 32.1734L21.2757 32.1893L21.2599 32.1929L21.108 32.2232L21.107 32.2027C21.0768 31.936 21.0748 31.7899 20.7853 31.7867H20.2805V32.7854C20.2812 33.051 20.5097 33.0495 20.7941 33.051C21.3193 33.0478 21.5297 33.022 21.6612 32.5322L21.6656 32.5145L21.6839 32.5175L21.8238 32.5538L21.8198 32.5718C21.7632 32.803 21.7112 33.0339 21.6717 33.2651L21.6684 33.2806H21.6534ZM21.637 33.2429C21.6752 33.022 21.7249 32.8015 21.7784 32.5816L21.6925 32.5599C21.5619 33.0485 21.3088 33.0921 20.7939 33.0888C20.519 33.0888 20.2442 33.0888 20.2427 32.7854V31.7494H20.7851C21.0898 31.7462 21.1205 31.9301 21.1423 32.1785L21.2364 32.1592C21.228 31.9982 21.2237 31.8365 21.2237 31.6764C21.2237 31.5124 21.228 31.3488 21.2364 31.1839H21.1423C21.1177 31.4121 21.0465 31.5713 20.7807 31.5685H20.2427V30.3863H20.8684C21.322 30.3826 21.3971 30.6177 21.4169 30.8925L21.5109 30.8669C21.5033 30.7437 21.4982 30.5853 21.4982 30.4395C21.4982 30.3648 21.5001 30.2938 21.5026 30.232C21.2062 30.2333 20.7638 30.2492 20.4052 30.2492C20.0467 30.2492 19.6055 30.2333 19.3385 30.232V30.3249H19.3807C19.5359 30.3252 19.7216 30.3522 19.7225 30.5937V32.8818C19.7216 33.1229 19.5359 33.1495 19.3807 33.1506H19.3385V33.2429C19.5924 33.2421 20.0967 33.2257 20.48 33.2257C20.8651 33.2257 21.3558 33.2421 21.637 33.2429Z" fill="#1A1919"/>
<path fill-rule="evenodd" clip-rule="evenodd" d="M22.3903 30.6758C22.3903 30.3574 22.2156 30.3443 22.0802 30.3443H22.0015V30.2132C22.1412 30.2132 22.4116 30.2306 22.678 30.2306C22.9392 30.2306 23.1489 30.2132 23.3801 30.2132C23.929 30.2132 24.4186 30.3615 24.4186 30.9821C24.4186 31.3749 24.1567 31.6148 23.8123 31.751L24.5578 32.8685C24.6803 33.0533 24.7669 33.105 24.9812 33.1307V33.2619C24.8369 33.2619 24.6973 33.2451 24.5538 33.2451C24.4186 33.2451 24.2784 33.2619 24.1438 33.2619C23.8076 32.821 23.5195 32.3495 23.2361 31.8464H22.9486V32.7817C22.9486 33.1179 23.1053 33.1307 23.3053 33.1307H23.3844V33.2619C23.1352 33.2619 22.8832 33.2451 22.6341 33.2451C22.4247 33.2451 22.2196 33.2619 22.0015 33.2619V33.1307H22.0802C22.2422 33.1307 22.3903 33.0568 22.3903 32.8954V30.6758ZM22.9484 31.6889H23.1616C23.5983 31.6889 23.8335 31.5234 23.8335 31.0078C23.8335 30.6194 23.5848 30.3704 23.1961 30.3704C23.0651 30.3704 23.0093 30.3838 22.9484 30.3881V31.6889Z" fill="#1A1919"/>
<path fill-rule="evenodd" clip-rule="evenodd" d="M24.9809 33.2806C24.8346 33.2806 24.6959 33.2631 24.5524 33.2631C24.4195 33.2631 24.2799 33.2806 24.128 33.2733C23.7933 32.8336 23.5065 32.3647 23.2248 31.8661H22.967V32.7808C22.9718 33.1096 23.1034 33.1072 23.305 33.1118H23.4029V33.2806H23.3836C23.1343 33.2806 22.8808 33.2631 22.6336 33.2631C22.4252 33.2631 22.2203 33.2806 22.0012 33.2806H21.9822V33.1118H22.0799C22.2368 33.1106 22.3694 33.0422 22.3701 32.8954V30.6757C22.3668 30.3661 22.2153 30.3676 22.0799 30.3633H21.9822V30.1942H22.0012C22.1424 30.1942 22.4117 30.2112 22.6777 30.2112C22.9381 30.2112 23.1473 30.1942 23.3798 30.1942C23.9299 30.1953 24.436 30.3469 24.4373 30.9814C24.4373 31.3756 24.1771 31.6219 23.8407 31.7593L24.5732 32.858C24.6952 33.0392 24.7712 33.0845 24.9834 33.1118L24.9992 33.1143V33.2806H24.9809ZM22.9483 31.8276H23.2463L23.2518 31.8373C23.5358 32.3391 23.8225 32.8107 24.1436 33.2432C24.2764 33.2432 24.4166 33.2257 24.5525 33.2257C24.6917 33.2257 24.8264 33.2409 24.9618 33.2429V33.147C24.7574 33.122 24.6613 33.0602 24.5423 32.8792L23.7828 31.7422L23.8043 31.7335C24.1459 31.5987 24.3991 31.3655 24.3992 30.9814C24.3991 30.3755 23.9283 30.235 23.3799 30.232C23.1502 30.232 22.9405 30.2497 22.6778 30.2497C22.4215 30.2497 22.1626 30.2333 22.0199 30.232V30.3249H22.08C22.2154 30.3252 22.4081 30.3477 22.4081 30.6757V32.8954C22.4081 33.0706 22.2442 33.1503 22.08 33.1506H22.0199V33.2429C22.2296 33.2421 22.4288 33.2257 22.6337 33.2257C22.8773 33.2257 23.1236 33.2421 23.3649 33.2429V33.1506H23.3051C23.1065 33.1503 22.9289 33.1257 22.9289 32.7808V31.8276H22.9483ZM22.9481 31.7077H22.9288V30.3704L22.9454 30.3691C23.0052 30.3643 23.064 30.3522 23.1959 30.3522C23.5932 30.3522 23.852 30.6106 23.8523 31.0089C23.8512 31.5303 23.6015 31.7075 23.1614 31.7077H22.9481ZM23.1614 31.6705C23.5933 31.6662 23.8109 31.5163 23.8152 31.0089C23.8125 30.6273 23.5759 30.3906 23.196 30.3889C23.0782 30.3889 23.0226 30.3998 22.9669 30.4053V31.6705H23.1614Z" fill="#1A1919"/>
<path fill-rule="evenodd" clip-rule="evenodd" d="M27.9431 32.4011L27.9507 32.3925V30.7551C27.9507 30.3967 27.7028 30.3443 27.5719 30.3443H27.4763V30.2132C27.6814 30.2132 27.8813 30.2306 28.0869 30.2306C28.2663 30.2306 28.4438 30.2132 28.6239 30.2132V30.3443H28.5582C28.3749 30.3443 28.17 30.3792 28.17 30.899V32.8862C28.17 33.0392 28.1743 33.192 28.1957 33.3276H28.0306L25.7842 30.8201V32.62C25.7842 33.0002 25.8579 33.1307 26.1937 33.1307H26.268V33.2619C26.0806 33.2619 25.8927 33.2449 25.7053 33.2449C25.5083 33.2449 25.308 33.2619 25.1118 33.2619V33.1307H25.1724C25.4736 33.1307 25.5658 32.9253 25.5658 32.577V30.7368C25.5658 30.4924 25.3648 30.3443 25.1686 30.3443H25.1118V30.2132C25.2769 30.2132 25.4483 30.2306 25.6138 30.2306C25.7434 30.2306 25.8706 30.2132 26.0017 30.2132L27.9431 32.4011Z" fill="#1A1919"/>
<path fill-rule="evenodd" clip-rule="evenodd" d="M28.1953 33.346L28.0162 33.3398L25.802 30.8697V32.6199C25.8071 33.0003 25.8646 33.1077 26.1935 33.1119H26.286V33.2807H26.267C26.0784 33.2807 25.8911 33.2625 25.7042 33.2625C25.5095 33.2625 25.3079 33.2807 25.1114 33.2807H25.0919V33.1119H25.1722C25.4603 33.1107 25.5429 32.9247 25.5457 32.5759V30.7368C25.5452 30.504 25.355 30.3633 25.1684 30.3633H25.0919V30.1942H25.1114C25.278 30.1942 25.4488 30.2112 25.6134 30.2112C25.7415 30.2112 25.8679 30.1942 26.0142 30.1998L27.932 32.3616V30.7552C27.9308 30.4083 27.6985 30.3653 27.5716 30.3633H27.4566V30.1942H27.4755C27.6816 30.1942 27.8827 30.2112 28.0867 30.2112C28.2644 30.2112 28.443 30.1942 28.6228 30.1942H28.6422V30.3633H28.558C28.378 30.3676 28.1925 30.3838 28.1882 30.899V32.8862C28.1882 33.0391 28.192 33.1906 28.2143 33.3245L28.2165 33.346H28.1953ZM28.0303 33.3079H28.1733C28.1541 33.1773 28.1503 33.0315 28.1503 32.8862V30.899C28.1507 30.3747 28.3713 30.3261 28.558 30.325H28.6039V30.2321C28.4322 30.2334 28.2598 30.2492 28.0868 30.2492C27.8863 30.2492 27.6919 30.2334 27.4946 30.2321V30.325H27.5717C27.7061 30.3261 27.9703 30.385 27.9703 30.7551L27.9641 32.4062L27.9561 32.4147L27.9424 32.429L26.0015 30.2321C25.8717 30.2321 25.7452 30.2492 25.6135 30.2492C25.4517 30.2492 25.2887 30.2334 25.1301 30.2321V30.325H25.1685C25.3737 30.3261 25.5836 30.481 25.5836 30.7368V32.5759C25.5836 32.9263 25.485 33.1495 25.1723 33.1507L25.1301 33.1504V33.2431C25.3186 33.2418 25.5129 33.2257 25.7043 33.2257C25.8873 33.2257 26.0686 33.2418 26.2489 33.2431V33.1507H26.1936C25.8503 33.1504 25.7647 33.0002 25.7637 32.6198V30.7718L28.0303 33.3079ZM27.9425 32.4011L27.9567 32.3885L27.9425 32.4011ZM27.9318 32.3925V32.3914L27.9287 32.3881L27.9318 32.3925Z" fill="#1A1919"/>
<path fill-rule="evenodd" clip-rule="evenodd" d="M29.3249 32.6375C29.2809 32.7855 29.2283 32.9002 29.2283 32.9778C29.2283 33.1092 29.412 33.1309 29.5555 33.1309H29.6043V33.262C29.4291 33.2525 29.251 33.2451 29.0755 33.2451C28.9185 33.2451 28.7623 33.2525 28.6047 33.262V33.1309H28.6313C28.8011 33.1309 28.9456 33.0302 29.0103 32.8467L29.7083 30.8426C29.7653 30.6806 29.8439 30.4623 29.8704 30.3003C30.0091 30.2526 30.1844 30.1658 30.2669 30.1127C30.2805 30.1082 30.2885 30.1038 30.3018 30.1038C30.315 30.1038 30.3231 30.1038 30.3326 30.1175C30.3455 30.152 30.3582 30.1914 30.3718 30.2263L31.1748 32.5109C31.2271 32.6633 31.279 32.8248 31.3348 32.9566C31.388 33.0791 31.4796 33.1309 31.6241 33.1309H31.6502V33.262C31.4537 33.2525 31.2569 33.2451 31.0485 33.2451C30.8346 33.2451 30.6158 33.2525 30.3934 33.262V33.1309H30.4415C30.5412 33.1309 30.7124 33.1135 30.7124 33.0042C30.7124 32.9478 30.673 32.8298 30.6243 32.6894L30.4543 32.183H29.4642L29.3249 32.6375ZM29.9619 30.7026H29.9528L29.5474 31.9387H30.3625L29.9619 30.7026Z" fill="#1A1919"/>
<path fill-rule="evenodd" clip-rule="evenodd" d="M31.6489 33.2806C31.4529 33.2722 31.2562 33.2624 31.0485 33.2624C30.8346 33.2624 30.617 33.2722 30.3944 33.2806L30.3743 33.2816V33.111H30.4415C30.5425 33.111 30.6925 33.0883 30.6928 33.0042C30.6938 32.9544 30.6547 32.8347 30.6066 32.6958L30.4405 32.2017H29.4783L29.3426 32.6431C29.2986 32.7916 29.2456 32.907 29.2464 32.9781C29.2479 33.0847 29.4108 33.111 29.5556 33.111H29.6226V33.2816L29.6028 33.2806C29.4284 33.2722 29.2504 33.2624 29.0759 33.2624C28.9202 33.2624 28.7625 33.2722 28.6062 33.2806L28.5859 33.2816V33.111H28.6312C28.7933 33.1106 28.9287 33.0179 28.9918 32.8405L29.6905 30.8358C29.7468 30.6741 29.826 30.4569 29.8637 30.2823C30.0006 30.2358 30.1761 30.1477 30.2598 30.095C30.2721 30.0907 30.2841 30.085 30.3016 30.085C30.3123 30.0844 30.3358 30.0872 30.35 30.11C30.3624 30.1459 30.3763 30.1851 30.3895 30.2203L31.1926 32.5046C31.244 32.6575 31.2962 32.8189 31.3533 32.9483C31.4038 33.0647 31.4839 33.1106 31.6241 33.111H31.6682V33.2816L31.6489 33.2806ZM30.4126 33.2418C30.6284 33.2342 30.8403 33.2257 31.0487 33.2257C31.251 33.2257 31.4412 33.2342 31.6308 33.2418V33.1503H31.6243C31.4747 33.1513 31.3718 33.0925 31.3183 32.9637C31.2615 32.8318 31.2085 32.6696 31.157 32.5167L30.3538 30.2322C30.3406 30.1973 30.3282 30.1583 30.3168 30.1272C30.3125 30.1229 30.3135 30.1229 30.3101 30.1229H30.3018C30.2931 30.1229 30.2878 30.1256 30.2765 30.1284C30.1927 30.1829 30.0178 30.2691 29.888 30.3031C29.8614 30.4686 29.7828 30.6868 29.7262 30.8487L29.0282 32.8529C28.9618 33.0427 28.8084 33.1507 28.6314 33.1503H28.6241V33.2418C28.7737 33.2342 28.9246 33.2257 29.0761 33.2257C29.2448 33.2257 29.4169 33.2342 29.5838 33.2418V33.1503H29.5558C29.4133 33.1484 29.2148 33.1328 29.2098 32.9781C29.2102 32.8914 29.2637 32.7797 29.3064 32.632L29.3249 32.6375L29.3064 32.6316L29.4501 32.1648H30.4673L30.642 32.6835C30.691 32.824 30.7306 32.9404 30.7306 33.0042C30.7242 33.1379 30.5406 33.1479 30.4417 33.1503H30.4126V33.2418ZM29.5208 31.9575L29.9384 30.6832H29.9619V30.7025L29.9572 30.7039L29.9619 30.7025V30.6832H29.9749L30.3895 31.9575H29.5208ZM29.5729 31.9193H30.3366L29.9569 30.749L29.5729 31.9193ZM29.9429 30.7082L29.953 30.705L29.9429 30.7082Z" fill="#1A1919"/>
<path fill-rule="evenodd" clip-rule="evenodd" d="M31.8421 30.4316C31.515 30.4316 31.5018 30.5106 31.436 30.8291H31.3049C31.3221 30.7067 31.3444 30.5845 31.3579 30.4579C31.3749 30.3351 31.3834 30.2132 31.3834 30.0869H31.4889C31.5231 30.218 31.6324 30.2132 31.7501 30.2132H34.0015C34.1187 30.2132 34.2277 30.2089 34.2363 30.0778L34.3406 30.0957C34.3245 30.2132 34.3071 30.3313 34.2934 30.4495C34.2838 30.5673 34.2838 30.6849 34.2838 30.8028L34.1536 30.8514C34.1458 30.69 34.1238 30.4316 33.8309 30.4316H33.1156V32.7552C33.1156 33.0922 33.2685 33.1307 33.4775 33.1307H33.5609V33.262C33.3905 33.262 33.0857 33.2451 32.8495 33.2451C32.5883 33.2451 32.2822 33.262 32.1121 33.262V33.1307H32.1951C32.4356 33.1307 32.5573 33.1092 32.5573 32.7643V30.4316H31.8421Z" fill="#1A1919"/>
<path fill-rule="evenodd" clip-rule="evenodd" d="M33.5608 33.2806C33.3894 33.2806 33.0836 33.2633 32.8491 33.2633C32.5885 33.2633 32.283 33.2806 32.1121 33.2806H32.0928V33.1119H32.195C32.4356 33.1062 32.532 33.1031 32.5378 32.7643L32.5375 30.4503H31.842V30.4121H32.576V32.7643C32.576 33.115 32.4346 33.1495 32.195 33.1504H32.1308V33.2433C32.3032 33.2418 32.5963 33.2258 32.8491 33.2258C33.0771 33.2258 33.3691 33.2418 33.5413 33.2433V33.1504H33.4772C33.267 33.1495 33.0971 33.099 33.0968 32.7552V30.4121H33.8308C34.1239 30.4133 34.162 30.6622 34.1704 30.8248L34.2652 30.7899C34.2652 30.6758 34.2659 30.5616 34.2748 30.4473C34.2865 30.3347 34.303 30.223 34.3189 30.1115L34.253 30.1C34.233 30.2271 34.1098 30.2342 34.0013 30.2322H31.7277C31.6248 30.2334 31.5135 30.2274 31.4739 30.1053H31.4026C31.4016 30.2261 31.393 30.3435 31.3758 30.4599C31.3639 30.5804 31.3429 30.696 31.3263 30.8109H31.4201C31.4774 30.5062 31.5152 30.4073 31.842 30.4121V30.4503C31.5185 30.4559 31.5256 30.5108 31.4544 30.8335L31.4513 30.8484H31.2828L31.2855 30.8267C31.3038 30.7039 31.3253 30.5812 31.338 30.4554C31.3558 30.3332 31.3639 30.2121 31.3639 30.0869V30.0676H31.5025L31.5061 30.0813C31.5366 30.1914 31.6161 30.1922 31.7277 30.1942H34.0013C34.122 30.1922 34.2101 30.1906 34.2178 30.0767L34.2185 30.0557L34.2388 30.0596L34.3626 30.0791L34.3597 30.0985C34.3417 30.2157 34.3252 30.3332 34.3119 30.4503C34.303 30.5673 34.303 30.6849 34.303 30.8028V30.816L34.2903 30.8211L34.1359 30.8777L34.1353 30.8524C34.1239 30.688 34.1065 30.4503 33.8308 30.4503H33.1343V32.7552C33.1387 33.0846 33.2693 33.1077 33.4772 33.1119H33.5789V33.2806H33.5608Z" fill="#1A1919"/>
<path fill-rule="evenodd" clip-rule="evenodd" d="M34.5021 33.1307H34.5632C34.7204 33.1307 34.8855 33.1092 34.8855 32.8819V30.5938C34.8855 30.3661 34.7204 30.3445 34.5632 30.3445H34.5021V30.2132C34.6723 30.2132 34.9336 30.2306 35.1471 30.2306C35.3657 30.2306 35.6276 30.2132 35.833 30.2132V30.3445H35.7717C35.614 30.3445 35.4483 30.3661 35.4483 30.5938V32.8819C35.4483 33.1092 35.614 33.1307 35.7717 33.1307H35.833V33.2619C35.6235 33.2619 35.3614 33.2451 35.1436 33.2451C34.9294 33.2451 34.6723 33.2619 34.5021 33.2619V33.1307Z" fill="#1A1919"/>
<path fill-rule="evenodd" clip-rule="evenodd" d="M35.833 33.2807C35.6221 33.2807 35.3612 33.2625 35.1436 33.2625C34.9301 33.2625 34.6725 33.2807 34.5021 33.2807H34.4834V33.1119H34.5633C34.7205 33.1092 34.8655 33.0953 34.8665 32.8819V30.5938C34.8655 30.3804 34.7205 30.3662 34.5633 30.3633H34.4834V30.1942H34.5021C34.6725 30.1942 34.9349 30.2112 35.147 30.2112C35.3645 30.2112 35.6262 30.1942 35.833 30.1942H35.8512V30.3633H35.7719C35.6122 30.3662 35.4687 30.3804 35.4672 30.5938V32.8819C35.4687 33.0953 35.6122 33.1092 35.7719 33.1119H35.8512V33.2807H35.833ZM35.8133 33.2429V33.1504H35.772C35.6155 33.1504 35.4303 33.1229 35.4303 32.8819V30.5938C35.4303 30.3522 35.6155 30.3253 35.772 30.325H35.8133V30.2321C35.6121 30.2334 35.3595 30.2492 35.1471 30.2492C34.9401 30.2492 34.6904 30.2334 34.5211 30.2321V30.325H34.5634C34.7183 30.3253 34.9042 30.3522 34.9047 30.5938V32.8819C34.9042 33.1229 34.7183 33.1504 34.5634 33.1504H34.5211V33.2429C34.6892 33.241 34.9359 33.2258 35.1437 33.2258C35.3552 33.2258 35.6075 33.2418 35.8133 33.2429Z" fill="#1A1919"/>
<path fill-rule="evenodd" clip-rule="evenodd" d="M37.5726 30.1477C38.5026 30.1477 39.2438 30.7249 39.2438 31.6551C39.2438 32.6598 38.5239 33.3276 37.595 33.3276C36.6698 33.3276 35.9634 32.6985 35.9634 31.7593C35.9634 30.8513 36.6655 30.1477 37.5726 30.1477ZM37.6386 33.1353C38.4852 33.1353 38.6328 32.3879 38.6328 31.751C38.6328 31.1127 38.289 30.34 37.5645 30.34C36.8012 30.34 36.5742 31.0215 36.5742 31.6062C36.5742 32.3879 36.9322 33.1353 37.6386 33.1353Z" fill="#1A1919"/>
<path fill-rule="evenodd" clip-rule="evenodd" d="M35.9442 31.7593C35.946 30.8408 36.6562 30.1302 37.5727 30.1287V30.1669C36.6759 30.1669 35.9822 30.8609 35.9812 31.7593C35.983 32.6879 36.6792 33.3076 37.5955 33.3079C38.5149 33.3076 39.2245 32.6494 39.2256 31.6545C39.2248 30.7358 38.4953 30.1677 37.5727 30.1669V30.1287C38.5093 30.1297 39.2611 30.7125 39.2628 31.6545C39.2618 32.6696 38.5333 33.3443 37.5955 33.3459C36.6624 33.3443 35.946 32.7089 35.9442 31.7593ZM36.555 31.6062C36.5563 31.0185 36.7854 30.3205 37.5643 30.3205C38.305 30.3221 38.6505 31.1093 38.652 31.751C38.6505 32.3879 38.5009 33.1532 37.6388 33.1532V33.1161C38.4682 33.1155 38.6123 32.3879 38.6137 31.751C38.6137 31.1183 38.2733 30.3602 37.5643 30.359C36.8159 30.3598 36.5948 31.0244 36.5928 31.6062C36.5932 32.3842 36.9479 33.115 37.6388 33.1161V33.1532C36.9147 33.1525 36.5563 32.3925 36.555 31.6062Z" fill="#1A1919"/>
<path fill-rule="evenodd" clip-rule="evenodd" d="M42.1833 32.4011L42.1924 32.3925V30.7551C42.1924 30.3967 41.9429 30.3443 41.8121 30.3443H41.7172V30.2132C41.9216 30.2132 42.1227 30.2306 42.3272 30.2306C42.5065 30.2306 42.6853 30.2132 42.8643 30.2132V30.3443H42.7988C42.616 30.3443 42.4101 30.3792 42.4101 30.899V32.8862C42.4101 33.0392 42.4147 33.192 42.4368 33.3276H42.2708L40.0238 30.8201V32.62C40.0238 33.0002 40.0983 33.1307 40.4335 33.1307H40.5083V33.2619C40.3205 33.2619 40.1333 33.2449 39.9457 33.2449C39.7492 33.2449 39.5484 33.2619 39.3521 33.2619V33.1307H39.4133C39.7148 33.1307 39.8058 32.9253 39.8058 32.577V30.7368C39.8058 30.4924 39.6059 30.3443 39.4085 30.3443H39.3521V30.2132C39.5178 30.2132 39.6878 30.2306 39.8539 30.2306C39.9845 30.2306 40.1103 30.2132 40.2418 30.2132L42.1833 32.4011Z" fill="#1A1919"/>
<path fill-rule="evenodd" clip-rule="evenodd" d="M42.437 33.3459L42.2565 33.3398L40.0426 30.8697V32.62C40.0478 33.0002 40.1054 33.1072 40.433 33.111H40.527V33.2806H40.5085C40.3196 33.2806 40.1323 33.2631 39.9457 33.2631C39.7502 33.2631 39.5494 33.2806 39.3516 33.2806H39.3337V33.111H39.4132C39.7007 33.1101 39.7835 32.9247 39.787 32.5768V30.7367C39.7869 30.504 39.5961 30.3633 39.4087 30.3633H39.3337V30.1942H39.3516C39.5188 30.1942 39.6889 30.2112 39.8537 30.2112C39.9832 30.2112 40.1085 30.1942 40.2565 30.2009L42.1733 32.3616V30.7551C42.1718 30.4082 41.9395 30.3661 41.8121 30.3633H41.6972V30.1942H41.7172C41.9221 30.1942 42.1234 30.2112 42.3267 30.2112C42.5052 30.2112 42.6832 30.1942 42.8645 30.1942H42.8828V30.3633H42.7986C42.6188 30.3679 42.4332 30.3844 42.4296 30.8989V32.8861C42.4296 33.0391 42.433 33.1915 42.4542 33.3244L42.458 33.3459H42.437ZM42.2711 33.3079H42.4141C42.3956 33.1764 42.3913 33.0314 42.3913 32.8861V30.8989C42.3913 30.3739 42.6116 30.3261 42.7988 30.3249H42.8461V30.232C42.6728 30.2333 42.5013 30.2492 42.3269 30.2492C42.1282 30.2492 41.9332 30.2333 41.7357 30.232V30.3249H41.8124C41.9471 30.3261 42.2105 30.3858 42.2105 30.7551L42.2059 32.4062L42.1974 32.4146L42.1836 32.429L40.2422 30.232C40.113 30.232 39.986 30.2492 39.8539 30.2492C39.6931 30.2492 39.5293 30.2333 39.3706 30.232V30.3249H39.4089C39.614 30.3261 39.8247 30.481 39.8247 30.7367V32.5768C39.8247 32.9263 39.7273 33.1495 39.4134 33.1506L39.3706 33.1503V33.2431C39.56 33.2417 39.7542 33.2257 39.9459 33.2257C40.1279 33.2257 40.3087 33.2417 40.4895 33.2431V33.1506H40.4332C40.0909 33.1503 40.005 33.0002 40.005 32.6199V30.7711L42.2711 33.3079ZM42.1834 32.4011L42.1973 32.3885L42.1834 32.4011ZM42.1735 32.3925V32.3913L42.17 32.388L42.1735 32.3925Z" fill="#1A1919"/>
<path fill-rule="evenodd" clip-rule="evenodd" d="M43.5653 32.6375C43.5225 32.7855 43.4699 32.9002 43.4699 32.9778C43.4699 33.1092 43.6537 33.1309 43.7967 33.1309H43.8454V33.262C43.6707 33.2525 43.4917 33.2451 43.317 33.2451C43.1599 33.2451 43.0031 33.2525 42.8467 33.262V33.1309H42.8714C43.0425 33.1309 43.187 33.0302 43.2507 32.8467L43.9502 30.8426C44.0065 30.6806 44.0855 30.4623 44.1106 30.3003C44.2508 30.2526 44.4248 30.1658 44.5089 30.1127C44.5211 30.1082 44.5298 30.1038 44.5434 30.1038C44.5561 30.1038 44.5643 30.1038 44.5733 30.1175C44.5865 30.152 44.5995 30.1914 44.6127 30.2263L45.4154 32.5109C45.4674 32.6633 45.5201 32.8248 45.5771 32.9566C45.6294 33.0791 45.7209 33.1309 45.8647 33.1309H45.8916V33.262C45.695 33.2525 45.4985 33.2451 45.2889 33.2451C45.0756 33.2451 44.8571 33.2525 44.6344 33.262V33.1309H44.6827C44.7825 33.1309 44.9535 33.1135 44.9535 33.0042C44.9535 32.9478 44.9144 32.8298 44.8657 32.6894L44.6956 32.183H43.7055L43.5653 32.6375ZM44.2031 30.7026H44.1943L43.7876 31.9387H44.6047L44.2031 30.7026Z" fill="#1A1919"/>
<path fill-rule="evenodd" clip-rule="evenodd" d="M45.8898 33.2807C45.6932 33.2729 45.4973 33.2631 45.2893 33.2631C45.0764 33.2631 44.8578 33.2729 44.6355 33.2807L44.6162 33.2817V33.1119H44.6826C44.784 33.1119 44.9343 33.0884 44.9344 33.0042C44.9356 32.9545 44.8961 32.8353 44.8471 32.6959L44.6816 32.2018H43.7186L43.5838 32.6432C43.5399 32.7928 43.4884 32.907 43.4889 32.9778C43.4889 33.0848 43.6525 33.1119 43.7967 33.1119H43.8634V33.2817L43.8437 33.2807C43.6695 33.2729 43.4909 33.2631 43.3172 33.2631C43.1608 33.2631 43.0042 33.2729 42.8469 33.2807L42.8279 33.2817V33.1119H42.8716C43.0343 33.111 43.1704 33.0178 43.2343 32.8406L43.9319 30.8358C43.9879 30.6742 44.0667 30.4569 44.105 30.283C44.242 30.2354 44.4172 30.1478 44.5021 30.095C44.5133 30.0907 44.5256 30.0854 44.5434 30.0854C44.5546 30.0844 44.5776 30.0873 44.591 30.1111C44.6042 30.1454 44.617 30.1851 44.6312 30.2203L45.4334 32.5046C45.4859 32.6576 45.538 32.8189 45.5946 32.9492C45.646 33.0647 45.7249 33.1107 45.8644 33.1119H45.9095V33.2817L45.8898 33.2807ZM44.6532 33.2421C44.869 33.2342 45.0812 33.2258 45.2893 33.2258C45.492 33.2258 45.6818 33.2342 45.8722 33.2418L45.8717 33.1504H45.8644C45.7166 33.1507 45.6137 33.0925 45.5592 32.9637C45.5018 32.8318 45.4499 32.6696 45.3976 32.5172L44.5949 30.2322C44.582 30.1973 44.5682 30.1583 44.5579 30.1281C44.5543 30.123 44.5546 30.123 44.552 30.123H44.5434C44.534 30.123 44.5292 30.1259 44.5188 30.1289C44.4334 30.1823 44.2589 30.2699 44.1301 30.3032C44.103 30.4686 44.0237 30.6865 43.9676 30.8487L43.2689 32.853C43.2025 33.0427 43.0501 33.1507 42.8716 33.1504H42.8652V33.2418C43.0155 33.2342 43.1654 33.2258 43.3171 33.2258C43.4861 33.2258 43.6586 33.2342 43.8262 33.2418V33.1504H43.7967C43.6548 33.1484 43.456 33.1333 43.4504 32.9778C43.4516 32.8915 43.5052 32.78 43.548 32.6321L43.5655 32.6375L43.548 32.6316L43.6915 32.1649H44.7083L44.8835 32.6835C44.9316 32.824 44.9714 32.9404 44.9714 33.0042C44.9651 33.138 44.7817 33.1479 44.6826 33.1504H44.6532V33.2421ZM43.7619 31.9574L44.1808 30.6832H44.2034V30.7026L44.1985 30.7039L44.2034 30.7026V30.6832H44.2166L44.6291 31.9574H43.7619ZM43.8144 31.9194H44.5776L44.1981 30.7497L43.8144 31.9194ZM44.1853 30.7082L44.1939 30.7051L44.1853 30.7082Z" fill="#1A1919"/>
<path fill-rule="evenodd" clip-rule="evenodd" d="M46.9902 32.8336C46.9902 33.0092 47.1114 33.0609 47.2515 33.0791C47.43 33.0922 47.6265 33.0922 47.8277 33.0698C48.0107 33.0478 48.1677 32.9437 48.246 32.8336C48.3154 32.7377 48.3547 32.6154 48.3814 32.5195H48.5076C48.4595 32.7684 48.3986 33.0133 48.3462 33.2619C47.9632 33.2619 47.5781 33.2451 47.1948 33.2451C46.8106 33.2451 46.427 33.2619 46.0432 33.2619V33.1307H46.1036C46.261 33.1307 46.4318 33.1092 46.4318 32.8384V30.5938C46.4318 30.3661 46.261 30.3443 46.1036 30.3443H46.0432V30.2132C46.2741 30.2132 46.5013 30.2306 46.7321 30.2306C46.955 30.2306 47.1727 30.2132 47.3958 30.2132V30.3443H47.2861C47.1203 30.3443 46.9902 30.3489 46.9902 30.5804V32.8336Z" fill="#1A1919"/>
<path fill-rule="evenodd" clip-rule="evenodd" d="M48.3465 33.2806C47.9618 33.2806 47.5775 33.2631 47.1949 33.2631C46.8112 33.2631 46.4272 33.2806 46.0425 33.2806H46.0242V33.1118H46.1038C46.2615 33.108 46.4112 33.0969 46.413 32.8384V30.5929C46.4112 30.3803 46.2621 30.3661 46.1038 30.3633H46.0242V30.1942H46.0425C46.2748 30.1942 46.5019 30.2112 46.7319 30.2112C46.954 30.2112 47.1713 30.1942 47.3959 30.1942H47.4134V30.3633H47.2862C47.117 30.3676 47.012 30.36 47.0082 30.5804V32.8336C47.0093 32.9969 47.1162 33.0405 47.2526 33.0601C47.3293 33.0653 47.4106 33.0682 47.4945 33.0682C47.6011 33.0682 47.7119 33.0632 47.8247 33.0513C48.0024 33.0301 48.1553 32.9273 48.2308 32.8231C48.2981 32.7297 48.3361 32.61 48.3625 32.515L48.3662 32.5006H48.5306L48.5268 32.5236C48.4775 32.7732 48.4174 33.0169 48.3645 33.2659L48.3611 33.2806H48.3465ZM48.3307 33.2429C48.3812 33.0057 48.4382 32.7737 48.4854 32.5381H48.3954C48.3687 32.6332 48.3297 32.7504 48.2614 32.8455C48.1798 32.9585 48.0183 33.0653 47.829 33.0888C47.7149 33.1004 47.6015 33.1063 47.4947 33.1063C47.4101 33.1063 47.3285 33.1025 47.2491 33.0969C47.1073 33.0814 46.9701 33.0204 46.9702 32.8336V30.5803C46.9702 30.3375 47.1236 30.3249 47.2864 30.3249H47.3763V30.232C47.1614 30.2333 46.9492 30.2497 46.7321 30.2497C46.5067 30.2497 46.2856 30.2333 46.0623 30.232V30.3249H46.104C46.2595 30.3249 46.4499 30.3522 46.4499 30.5929V32.8383C46.4499 33.1211 46.2603 33.1503 46.104 33.1503H46.0623V33.2429C46.4392 33.2421 46.8163 33.2257 47.1951 33.2257C47.5744 33.2257 47.9531 33.2421 48.3307 33.2429Z" fill="#1A1919"/>
<path fill-rule="evenodd" clip-rule="evenodd" d="M21.2075 14.7939C21.2075 10.7086 24.5154 7.39679 28.5957 7.39679C32.6761 7.39679 35.984 10.7086 35.984 14.7939C35.984 18.8792 32.6761 22.1912 28.5957 22.1912C24.5154 22.1912 21.2075 18.8792 21.2075 14.7939Z" fill="#FFFFFE"/>
<path fill-rule="evenodd" clip-rule="evenodd" d="M33.064 14.6482C33.0611 12.754 31.8784 11.1384 30.212 10.4986V18.7976C31.8784 18.1569 33.0611 16.5429 33.064 14.6482ZM27.0331 18.7959V10.4994C25.3681 11.1412 24.1873 12.7545 24.1829 14.6483C24.1873 16.5416 25.3681 18.1546 27.0331 18.7959ZM28.6233 7.63369C24.7541 7.63518 21.6193 10.7744 21.6186 14.6482C21.6193 18.5216 24.7541 21.6603 28.6233 21.661C32.4926 21.6603 35.6281 18.5216 35.6291 14.6482C35.6281 10.7744 32.4926 7.63518 28.6233 7.63369ZM28.6061 22.3229C24.3721 22.3431 20.8872 18.9088 20.8872 14.7283C20.8872 10.1594 24.3721 6.99917 28.6061 7H30.5903C34.7743 6.99917 38.5929 10.1579 38.5929 14.7283C38.5929 18.9073 34.7743 22.3229 30.5903 22.3229H28.6061Z" fill="#0069AA"/>
<path fill-rule="evenodd" clip-rule="evenodd" d="M11.019 33.1307H11.0803C11.2372 33.1307 11.403 33.1092 11.403 32.8819V30.5938C11.403 30.3661 11.2372 30.3445 11.0803 30.3445H11.019V30.2132C11.1891 30.2132 11.4509 30.2306 11.6652 30.2306C11.8832 30.2306 12.1446 30.2132 12.3496 30.2132V30.3445H12.2881C12.1318 30.3445 11.9657 30.3661 11.9657 30.5938V32.8819C11.9657 33.1092 12.1318 33.1307 12.2881 33.1307H12.3496V33.2619C12.1404 33.2619 11.878 33.2451 11.6607 33.2451C11.4466 33.2451 11.1891 33.2619 11.019 33.2619V33.1307Z" fill="#1A1919"/>
<path fill-rule="evenodd" clip-rule="evenodd" d="M12.3496 33.2807C12.1386 33.2807 11.8775 33.2631 11.6603 33.2631C11.4468 33.2631 11.1902 33.2807 11.019 33.2807H11V33.1119H11.0799C11.2383 33.1081 11.3823 33.0953 11.3836 32.8819V30.5938C11.3823 30.38 11.2383 30.3662 11.0799 30.3633H11V30.1942H11.019C11.1902 30.1942 11.4518 30.2112 11.6651 30.2112C11.8821 30.2112 12.1433 30.1942 12.3496 30.1942H12.3691V30.3633H12.2888C12.1303 30.3662 11.9855 30.38 11.9847 30.5938V32.8819C11.9855 33.0953 12.1303 33.1081 12.2888 33.1119H12.3691V33.2807H12.3496ZM12.3308 33.2433L12.3309 33.1504H12.2888C12.1328 33.1504 11.9473 33.1229 11.9463 32.8819V30.5938C11.9473 30.3522 12.1328 30.3253 12.2888 30.3253H12.3308V30.2321C12.1295 30.2322 11.8767 30.2497 11.6651 30.2497C11.4579 30.2497 11.2071 30.2334 11.0381 30.2321V30.3253H11.0799C11.2355 30.3253 11.4212 30.3522 11.4212 30.5938V32.8819C11.4212 33.1229 11.2355 33.1504 11.0799 33.1504H11.0381V33.2433C11.2071 33.2418 11.4534 33.2258 11.6603 33.2258C11.8729 33.2258 12.125 33.2421 12.3308 33.2433Z" fill="#1A1919"/>
<path fill-rule="evenodd" clip-rule="evenodd" d="M48.4547 30.0894C48.7179 30.0894 48.9143 30.2917 48.9143 30.5503C48.9143 30.8087 48.7179 31.0089 48.4547 31.0089C48.1922 31.0089 47.9955 30.8087 47.9955 30.5503C47.9955 30.2917 48.1922 30.0894 48.4547 30.0894ZM48.4549 30.9234C48.6609 30.9234 48.8183 30.748 48.8183 30.5503C48.8183 30.3522 48.6628 30.1755 48.4549 30.1755C48.2481 30.1755 48.0909 30.3522 48.0909 30.5503C48.0909 30.748 48.2481 30.9234 48.4549 30.9234ZM48.2263 30.7928V30.7705C48.2824 30.7624 48.293 30.7639 48.293 30.7295V30.3886C48.293 30.3406 48.2882 30.3241 48.2281 30.3268V30.3033H48.4632C48.544 30.3033 48.6185 30.342 48.6185 30.4256C48.6185 30.4939 48.5735 30.5447 48.5098 30.5643L48.5854 30.6698C48.6206 30.7174 48.6607 30.7624 48.6865 30.7783V30.7928H48.5972C48.5542 30.7928 48.5162 30.7025 48.432 30.5814H48.3812V30.7338C48.3812 30.7639 48.3917 30.7624 48.4482 30.7705V30.7928H48.2263ZM48.3811 30.5503H48.4353C48.4946 30.5503 48.522 30.5055 48.522 30.4329C48.522 30.3598 48.4797 30.3339 48.4323 30.3339H48.3811V30.5503Z" fill="#1A1919"/>
</svg>
