<svg width="60" height="40" viewBox="0 0 60 40" fill="none" xmlns="http://www.w3.org/2000/svg">
<rect x="0.5" y="0.5" width="59" height="39" rx="2.5" fill="white" stroke="#D5DFFF"/>
<path d="M59 28L24 39H56H57.0002C58.1048 39 59 38.1046 59 37V28Z" fill="#FD6020"/>
<path fill-rule="evenodd" clip-rule="evenodd" d="M52.0324 15.19C53.895 15.19 54.9195 16.019 54.9195 17.5847C55.0126 18.7821 54.1744 19.7952 53.0568 19.9794L55.5714 23.3872H53.6156L51.4736 20.0715H51.2873V23.3872H49.704V15.19H52.0324ZM51.2873 18.9663H51.7529C52.7774 18.9663 53.2431 18.5057 53.2431 17.6768C53.2431 16.94 52.7774 16.4795 51.7529 16.4795H51.2873V18.9663ZM44.2092 23.3872H48.6796V22.0057H45.7924V19.7952H48.5864V18.4136H45.7924V16.5716H48.6796V15.19H44.2092V23.3872ZM39.5525 20.7162L37.4104 15.19H35.734L39.18 23.5714H40.0182L43.4641 15.19H41.7877L39.5525 20.7162ZM20.6464 19.3347C20.6464 21.6373 22.5091 23.5714 24.8374 23.5714C25.5825 23.5714 26.2344 23.3872 26.8863 23.1109V21.2688C26.4207 21.8215 25.7687 22.1899 25.0237 22.1899C23.5335 22.1899 22.3228 21.0846 22.3228 19.611V19.4268C22.2297 17.9531 23.4404 16.6637 24.9305 16.5716C25.6756 16.5716 26.4207 16.94 26.8863 17.4926V15.6505C26.3275 15.2821 25.5825 15.19 24.9305 15.19C22.5091 15.0058 20.6464 16.94 20.6464 19.3347ZM17.7593 18.3215C16.8279 17.9531 16.5485 17.7689 16.5485 17.3084C16.6417 16.7558 17.1073 16.2953 17.6661 16.3874C18.1318 16.3874 18.5975 16.6637 18.97 17.0321L19.8082 15.9269C19.1563 15.3742 18.3181 15.0058 17.4799 15.0058C16.176 14.9137 15.0584 15.9269 14.9653 17.2163V17.3084C14.9653 18.4136 15.4309 19.0584 16.9211 19.5189C17.2936 19.611 17.6661 19.7952 18.0387 19.9794C18.3181 20.1636 18.5043 20.4399 18.5043 20.8083C18.5043 21.4531 17.9455 22.0057 17.3867 22.0057H17.2936C16.5485 22.0057 15.8966 21.5452 15.6172 20.9004L14.5927 21.9136C15.1515 22.9267 16.2691 23.4793 17.3867 23.4793C18.8769 23.5714 20.0876 22.4662 20.1807 20.9925V20.7162C20.0876 19.611 19.6219 19.0584 17.7593 18.3215ZM12.3575 23.3872H13.9408V15.19H12.3575V23.3872ZM5 15.19H7.32834H7.794C10.0292 15.2821 11.7987 17.1242 11.7056 19.3347C11.7056 20.532 11.1468 21.6373 10.2155 22.4662C9.37727 23.1109 8.3528 23.4793 7.32834 23.3872H5V15.19ZM7.04893 22.0057C7.79399 22.0978 8.63219 21.8215 9.191 21.361C9.7498 20.8083 10.0292 20.0715 10.0292 19.2426C10.0292 18.5058 9.7498 17.7689 9.191 17.2163C8.63219 16.7558 7.79399 16.4795 7.04893 16.5716H6.58326V22.0057H7.04893Z" fill="black"/>
<path fill-rule="evenodd" clip-rule="evenodd" d="M31.6362 15C29.3079 15 27.3521 16.8421 27.3521 19.2368C27.3521 21.5393 29.2147 23.4735 31.6362 23.5656C34.0577 23.6577 35.9203 21.7235 36.0135 19.3289C35.9203 16.9342 34.0577 15 31.6362 15V15Z" fill="#FD6020"/>
<rect x="0.5" y="0.5" width="59" height="39" rx="2.5" stroke="#D5DFFF"/>
</svg>
