<svg width="60" height="40" viewBox="0 0 60 40" fill="none" xmlns="http://www.w3.org/2000/svg">
<rect x="0.5" y="0.5" width="59" height="39" rx="2.5" fill="white" stroke="#D5DFFF"/>
<path d="M50.9234 15.9056L53.5496 21.1649L48.0288 26.4268L50.9234 15.9056Z" fill="#008C44"/>
<path d="M49.1049 15.9056L51.7272 21.1649L46.2101 26.4268L49.1049 15.9056Z" fill="#F47920"/>
<path d="M7 24.5142L9.61843 14.9999H13.8046C15.1129 14.9999 15.9869 15.2088 16.4315 15.6392C16.8729 16.0662 16.958 16.7632 16.6919 17.7429C16.5309 18.3199 16.2863 18.8043 15.9503 19.1871C15.617 19.5705 15.1774 19.8737 14.6361 20.0966C15.0953 20.208 15.3875 20.4291 15.5185 20.7606C15.6488 21.0922 15.6337 21.5757 15.4755 22.2095L15.157 23.5384L15.1561 23.5744C15.0642 23.9465 15.0914 24.1457 15.2412 24.1619L15.1447 24.5142H12.3128C12.3224 24.2903 12.34 24.0902 12.3587 23.9221C12.3793 23.7501 12.4046 23.6168 12.4298 23.5253L12.6938 22.5752C12.8269 22.0811 12.8351 21.7364 12.7117 21.5379C12.5871 21.334 12.3082 21.2338 11.8679 21.2338H10.6778L9.77022 24.5142H7ZM11.2667 19.0898H12.5414C12.988 19.0898 13.3177 19.0255 13.5209 18.8924C13.7251 18.7582 13.8766 18.5316 13.9656 18.2037C14.0577 17.8704 14.0351 17.6379 13.9029 17.5058C13.771 17.3717 13.4553 17.3064 12.959 17.3064H11.7575L11.2667 19.0898Z" fill="#1B3281"/>
<path d="M24.4639 17.4934L22.5336 24.5142H20.1879L20.4762 23.4856C20.0633 23.8947 19.6408 24.2052 19.215 24.4037C18.7925 24.6057 18.3467 24.7051 17.8774 24.7051C17.4895 24.7051 17.1564 24.6341 16.8882 24.4932C16.6169 24.3528 16.4148 24.1393 16.2788 23.8578C16.1581 23.6113 16.1055 23.307 16.1261 22.9434C16.1478 22.5855 16.2731 21.9819 16.5053 21.1367L17.5057 17.4934H20.0715L19.0732 21.1196C18.9274 21.6504 18.8926 22.0234 18.9637 22.2266C19.0378 22.4315 19.2355 22.5374 19.5565 22.5374C19.8797 22.5374 20.1515 22.4193 20.376 22.1784C20.6037 21.9395 20.7795 21.5833 20.9116 21.1093L21.9017 17.4934H24.4639Z" fill="#1B3281"/>
<path d="M23.533 24.5142L26.1486 14.9999H29.7469C30.5408 14.9999 31.1553 15.0471 31.5935 15.1509C32.0308 15.2503 32.3738 15.4117 32.6286 15.6392C32.948 15.9369 33.1437 16.3053 33.2242 16.7473C33.2998 17.1893 33.255 17.7041 33.0893 18.3086C32.7962 19.3722 32.2825 20.1872 31.5505 20.7567C30.8163 21.3188 29.9078 21.6013 28.8235 21.6013H27.1396L26.3398 24.5142H23.533ZM27.7772 19.2777H28.682C29.267 19.2777 29.6783 19.2048 29.9192 19.0642C30.1524 18.9217 30.3181 18.6685 30.4192 18.3086C30.5202 17.9439 30.4942 17.6889 30.3415 17.5464C30.1945 17.4046 29.8189 17.3329 29.2179 17.3329H28.3149L27.7772 19.2777Z" fill="#1B3281"/>
<path d="M36.108 24.5146L36.1341 23.8478C35.7203 24.1602 35.3013 24.3963 34.8799 24.5439C34.4605 24.6942 34.0138 24.7705 33.5353 24.7705C32.8086 24.7705 32.3018 24.5713 32.0087 24.1858C31.7193 23.7996 31.6717 23.2451 31.8692 22.5378C32.0583 21.8396 32.3946 21.3257 32.8797 20.9972C33.362 20.6647 34.1676 20.4268 35.2978 20.2746C35.4412 20.2511 35.6332 20.2322 35.8737 20.2029C36.7092 20.1054 37.1783 19.8808 37.2794 19.5144C37.332 19.3139 37.3 19.1658 37.1765 19.075C37.0574 18.9807 36.8347 18.9344 36.5133 18.9344C36.2465 18.9344 36.0319 18.9901 35.8559 19.1061C35.6801 19.2232 35.5488 19.3943 35.4599 19.635H32.9583C33.1842 18.8447 33.6457 18.2475 34.3386 17.8482C35.029 17.4419 35.9393 17.2464 37.0668 17.2464C37.5969 17.2464 38.0717 17.2965 38.4914 17.405C38.9118 17.509 39.2191 17.6573 39.4184 17.8367C39.6637 18.0605 39.8089 18.3158 39.8503 18.598C39.898 18.8795 39.8457 19.283 39.6994 19.8109L38.6233 23.7252C38.5888 23.8533 38.5822 23.9677 38.6009 24.0717C38.6233 24.1708 38.6663 24.2557 38.7422 24.3163L38.6844 24.5146H36.108ZM36.7316 21.3797C36.4591 21.4901 36.105 21.5959 35.665 21.7121C34.9739 21.8991 34.5851 22.1486 34.5009 22.4573C34.4426 22.6558 34.4662 22.8087 34.5624 22.9249C34.6573 23.0353 34.8221 23.0911 35.0544 23.0911C35.4803 23.0911 35.8223 22.9825 36.0771 22.7681C36.3327 22.5509 36.5238 22.2099 36.6576 21.7396C36.6809 21.6395 36.7015 21.5676 36.7147 21.5139L36.7316 21.3797Z" fill="#1B3281"/>
<path d="M38.7039 27.2809L39.2733 25.2028H40.0076C40.2529 25.2028 40.4458 25.1539 40.5825 25.065C40.7213 24.9725 40.8157 24.8166 40.8701 24.6068C40.8973 24.5144 40.914 24.4171 40.9254 24.3066C40.9327 24.1895 40.9327 24.0657 40.9254 23.9223L40.5336 17.4936H43.1308L43.0905 21.7534L45.3578 17.4936H47.773L43.7647 24.4805C43.3098 25.2614 42.9792 25.7979 42.7693 26.0907C42.5622 26.3798 42.3656 26.6046 42.1747 26.7568C41.9274 26.9673 41.6512 27.1165 41.3531 27.2034C41.0544 27.2922 40.5994 27.3364 39.9879 27.3364C39.8119 27.3364 39.6094 27.333 39.3904 27.3214C39.173 27.3129 38.9409 27.2998 38.7039 27.2809Z" fill="#1B3281"/>
</svg>
